<?xml version="1.0" encoding="UTF-8" standalone="no"?>
<!DOCTYPE svg PUBLIC "-//W3C//DTD SVG 1.1//EN" "http://www.w3.org/Graphics/SVG/1.1/DTD/svg11.dtd">
<svg width="100%" height="100%" viewBox="0 0 1317 407" version="1.1" xmlns="http://www.w3.org/2000/svg" xmlns:xlink="http://www.w3.org/1999/xlink" xml:space="preserve" xmlns:serif="http://www.serif.com/" style="fill-rule:evenodd;clip-rule:evenodd;stroke-linejoin:round;stroke-miterlimit:2;">
    <g transform="matrix(1,0,0,1,-115.217,-220.813)">
        <g transform="matrix(1.37976,0,0,1.37976,-395.105,393.412)">
            <g transform="matrix(144,0,0,144,1322.48,116.515)">
            </g>
            <text x="522.994px" y="116.515px" style="font-family:'InstrumentSerif-Regular', 'Instrument Serif';font-size:144px;stroke:black;stroke-width:0.72px;">T<tspan x="583.33px 643.09px " y="116.515px 116.515px ">AT</tspan>IO<tspan x="821.938px " y="116.515px ">N</tspan>MA<tspan x="1059.54px 1116.99px " y="116.515px 116.515px ">ST</tspan>ER</text>
        </g>
        <g transform="matrix(0.578372,0,0,0.578372,24.2136,173.959)">
            <g transform="matrix(0.999698,-0.0245654,0.0245654,0.999698,59.0825,-33.1643)">
                <path d="M304.983,460.921C304.277,461.073 304.044,460.649 304.55,460.133C308.21,456.398 316.165,448.7 323.211,444.81C333.578,439.086 352.241,432.129 366.756,425.788C368.909,424.848 369.208,425.391 367.263,426.707C354.145,435.585 338.289,447.639 327.909,453.341C320.855,457.216 310.097,459.824 304.983,460.921Z" style="stroke:black;stroke-width:3px;stroke-linecap:round;stroke-miterlimit:1.5;"/>
            </g>
            <g transform="matrix(0.634636,-0.772811,0.772811,0.634636,-172.64,363.192)">
                <path d="M288.293,420.611C288.075,420.583 287.849,420.542 287.615,420.487C283.759,419.582 281.851,416.403 281.875,413.35C281.927,406.704 286.381,404.431 288.293,399.155C290.507,393.046 290.014,385.913 291.713,379.31C291.791,379.005 292.117,377.934 292.398,377.959C292.626,377.979 293.075,378.983 293.154,379.292C294.854,385.895 293.938,393.334 296.575,399.137C298.896,404.246 302.941,406.686 302.993,413.332C303.017,416.385 301.109,419.564 297.252,420.469C297.159,420.491 297.067,420.511 296.976,420.528L296.976,460.669L288.293,460.669L288.293,420.611Z"/>
            </g>
            <g transform="matrix(1,0,0,1,76.6691,-37.5226)">
                <path d="M86.611,444.377C86.594,377.18 136.079,314.157 188.908,292.789C307.929,244.648 375.196,295.477 396.286,301.473C401.462,302.945 411.57,298.733 411.637,304.113C411.816,318.44 411.838,386.04 411.65,401.382C411.629,403.076 408.506,406.264 404.806,403.242C401.129,400.239 396.875,391.035 396.561,390.02C379.788,335.958 320.568,320.382 288.338,320.755C210.433,321.657 146.464,385.759 160.447,455.253C173.393,519.596 310.506,542.733 358.118,579.056C381.513,596.903 398.216,621.638 404.605,656.464C419.955,740.138 346.213,824.711 249.459,822.002C191.75,820.387 145.353,795.99 122.678,779.826C122.111,779.421 113.729,787.608 107.821,795.13C100.823,804.042 96.774,810.099 91.354,812.199C87.593,813.657 81.109,813.414 81.078,810.039C80.915,792.543 80.459,655.98 80.795,626.119C80.884,618.242 92.799,623.673 93.051,624.806C108.429,693.897 153.392,775.527 245.397,771.768C350.639,767.469 362.907,657.327 271.763,626.205C209.007,604.776 86.64,553.07 86.611,444.377Z"/>
            </g>
            <g transform="matrix(0.741442,0,0,1,125.199,-41.3042)">
                <rect x="163.389" y="460.656" width="35.569" height="12.02"/>
            </g>
            <g transform="matrix(0.741442,0,0,1,337.937,-41.3042)">
                <rect x="163.389" y="460.656" width="35.569" height="12.02"/>
            </g>
            <g transform="matrix(4.54002e-17,0.741442,-1,6.12323e-17,832.563,184.663)">
                <rect x="163.389" y="460.656" width="35.569" height="12.02"/>
            </g>
            <g transform="matrix(-0.370721,0.642108,-0.866025,-0.5,890.391,450.243)">
                <rect x="163.389" y="460.656" width="35.569" height="12.02"/>
            </g>
            <g transform="matrix(-0.642108,0.370721,-0.5,-0.866025,807.681,709.157)">
                <rect x="163.389" y="460.656" width="35.569" height="12.02"/>
            </g>
            <g transform="matrix(-0.642108,-0.370721,0.5,-0.866025,341.016,949.855)">
                <rect x="163.389" y="460.656" width="35.569" height="12.02"/>
            </g>
            <g transform="matrix(-0.642108,-0.370721,0.5,-0.866025,156.779,843.486)">
                <rect x="163.389" y="460.656" width="35.569" height="12.02"/>
            </g>
            <g transform="matrix(-0.370721,-0.642108,0.866025,-0.5,82.1023,867.146)">
                <rect x="163.389" y="460.656" width="35.569" height="12.02"/>
            </g>
            <g transform="matrix(-0.370721,-0.642108,0.866025,-0.5,-24.267,682.909)">
                <rect x="163.389" y="460.656" width="35.569" height="12.02"/>
            </g>
            <g transform="matrix(1,0,0,1,71.1894,-53.2128)">
                <circle cx="293.951" cy="477.422" r="14.574"/>
            </g>
            <g transform="matrix(1,0,0,1,29.242,-46.4042)">
                <path d="M212.078,446.915C210.794,453.472 210.013,452.016 210.65,446.894C218.357,384.892 271.298,336.842 335.372,336.842C371.972,336.842 404.939,352.52 427.918,377.521C434.518,384.701 433.243,385.326 426.066,378.532C403.08,356.775 372.056,343.425 337.939,343.425C275.624,343.425 223.63,387.962 212.078,446.915Z" style="stroke:black;stroke-width:3px;stroke-linecap:round;stroke-miterlimit:1.5;"/>
            </g>
            <g transform="matrix(1.30025,0,0,1.10535,-32.456,-109.23)">
                <path d="M364.5,712.582C368.956,698.578 368.049,720.884 359.826,737.361C343.378,770.321 308.984,792.381 269.736,792.381C248.442,792.381 228.663,785.843 212.299,774.666C201.97,767.612 202.832,763.358 213.881,768.617C215.526,769.4 217.969,770.734 220.064,771.714C272.099,796.034 328.064,779.294 354.564,734.788C358.282,728.544 364.301,713.207 364.5,712.582Z" style="fill:white;"/>
            </g>
            <g transform="matrix(0.836328,0,0,0.958459,139.09,-79.2713)">
                <path d="M94.407,476.09C89.023,520.354 83.487,483.863 89.49,455.566C102.401,389.499 184.191,345.036 273.38,345.036C306.456,345.036 337.594,351.562 364.791,363.053C395.172,375.889 393.493,385.16 364.791,374.454C360.171,372.73 355.451,371.119 350.637,369.625C244.854,336.817 133.162,373.542 101.371,451.586C98.086,459.652 95.758,464.988 94.407,476.09Z" style="fill:white;"/>
            </g>
            <g transform="matrix(0.995982,0,0,1,79.174,-37.5226)">
                <path d="M250.741,257.452C220.206,246.739 198.65,220.84 198.65,190.624C198.65,150.835 236.028,118.532 282.068,118.532C328.107,118.532 365.485,150.835 365.485,190.624C365.485,220.734 344.08,246.558 313.714,257.339L313.714,280.182L250.741,280.182L250.741,257.452ZM313.714,235.583C333.486,226.779 346.874,209.894 346.874,190.529C346.874,162.087 317.997,138.997 282.429,138.997C246.86,138.997 217.983,162.087 217.983,190.529C217.983,209.763 231.19,226.55 250.741,235.403L250.741,224.081C246.332,219.08 243.74,212.974 243.74,206.386C243.74,189.459 260.849,175.717 281.922,175.717C302.995,175.717 320.104,189.459 320.104,206.386C320.104,212.664 317.751,218.504 313.714,223.367L313.714,235.583Z"/>
            </g>
            <g transform="matrix(0.00227571,0.999997,-1.05632,0.00240389,545.528,-117.027)">
                <path d="M272.463,155.476C271.356,159.863 270.457,166.778 270.457,174.279C270.457,181.779 271.356,188.694 272.463,193.081C268.772,193.081 265.775,184.656 265.775,174.279C265.775,163.901 268.772,155.476 272.463,155.476Z" style="fill:white;"/>
            </g>
            <g transform="matrix(0.851708,0,0,1.01544,115.65,-42.2608)">
                <path d="M267.657,222.344L267.657,247.291C267.657,247.845 267.12,248.295 266.459,248.295L264.064,248.295C263.402,248.295 262.866,247.845 262.866,247.291L262.866,222.344C262.866,221.789 263.402,221.339 264.064,221.339L266.459,221.339C267.12,221.339 267.657,221.789 267.657,222.344Z" style="fill:white;"/>
            </g>
            <g transform="matrix(0.851708,0,0,1.01544,129.544,-43.6807)">
                <path d="M267.657,222.344L267.657,247.291C267.657,247.845 267.12,248.295 266.459,248.295L264.064,248.295C263.402,248.295 262.866,247.845 262.866,247.291L262.866,222.344C262.866,221.789 263.402,221.339 264.064,221.339L266.459,221.339C267.12,221.339 267.657,221.789 267.657,222.344Z" style="fill:white;"/>
            </g>
            <g transform="matrix(0.851708,0,0,1.01544,142.719,-43.6807)">
                <path d="M267.657,222.344L267.657,247.291C267.657,247.845 267.12,248.295 266.459,248.295L264.064,248.295C263.402,248.295 262.866,247.845 262.866,247.291L262.866,222.344C262.866,221.789 263.402,221.339 264.064,221.339L266.459,221.339C267.12,221.339 267.657,221.789 267.657,222.344Z" style="fill:white;"/>
            </g>
            <g transform="matrix(0.851708,0,0,1.01544,154.524,-42.2608)">
                <path d="M267.657,222.344L267.657,247.291C267.657,247.845 267.12,248.295 266.459,248.295L264.064,248.295C263.402,248.295 262.866,247.845 262.866,247.291L262.866,222.344C262.866,221.789 263.402,221.339 264.064,221.339L266.459,221.339C267.12,221.339 267.657,221.789 267.657,222.344Z" style="fill:white;"/>
            </g>
            <g transform="matrix(0.817747,0,0,1,224.753,-9.2621)">
                <path d="M146.222,236.732C150.3,232.393 158.347,229.437 167.599,229.437C176.852,229.437 184.899,232.393 188.977,236.732L146.222,236.732Z" style="fill:white;"/>
            </g>
        </g>
    </g>
</svg>
