<?xml version="1.0" encoding="UTF-8" standalone="no"?>
<!DOCTYPE svg PUBLIC "-//W3C//DTD SVG 1.1//EN" "http://www.w3.org/Graphics/SVG/1.1/DTD/svg11.dtd">
<svg width="100%" height="100%" viewBox="0 0 1339 412" version="1.1" xmlns="http://www.w3.org/2000/svg" xmlns:xlink="http://www.w3.org/1999/xlink" xml:space="preserve" xmlns:serif="http://www.serif.com/" style="fill-rule:evenodd;clip-rule:evenodd;stroke-linejoin:round;stroke-miterlimit:2;">
    <g transform="matrix(1,0,0,1,-90.4254,-221.593)">
        <g transform="matrix(1.37976,0,0,1.37976,-398.333,382.861)">
            <g transform="matrix(144,0,0,144,522.994,116.515)">
                <path d="M0.118,-0C0.108,-0 0.103,-0.004 0.103,-0.011C0.103,-0.018 0.107,-0.022 0.116,-0.023L0.161,-0.03C0.174,-0.032 0.183,-0.036 0.188,-0.041C0.193,-0.046 0.195,-0.055 0.195,-0.069L0.195,-0.669C0.195,-0.678 0.193,-0.685 0.189,-0.689C0.185,-0.693 0.177,-0.695 0.164,-0.695C0.139,-0.695 0.115,-0.684 0.091,-0.663C0.067,-0.642 0.051,-0.607 0.044,-0.56L0.039,-0.527C0.038,-0.518 0.033,-0.514 0.025,-0.514C0.015,-0.514 0.011,-0.52 0.012,-0.531L0.021,-0.712C0.022,-0.727 0.028,-0.735 0.039,-0.735C0.044,-0.735 0.048,-0.734 0.052,-0.732C0.056,-0.729 0.063,-0.727 0.073,-0.724C0.082,-0.721 0.098,-0.72 0.119,-0.72L0.342,-0.72C0.363,-0.72 0.379,-0.721 0.389,-0.724C0.398,-0.727 0.405,-0.729 0.41,-0.732C0.414,-0.734 0.418,-0.735 0.422,-0.735C0.433,-0.735 0.439,-0.727 0.44,-0.712L0.449,-0.531C0.45,-0.52 0.446,-0.514 0.436,-0.514C0.428,-0.514 0.423,-0.518 0.422,-0.527L0.417,-0.56C0.41,-0.607 0.395,-0.642 0.371,-0.663C0.347,-0.684 0.322,-0.695 0.297,-0.695C0.284,-0.695 0.276,-0.693 0.272,-0.689C0.268,-0.685 0.266,-0.678 0.266,-0.669L0.266,-0.069C0.266,-0.055 0.269,-0.046 0.274,-0.041C0.279,-0.036 0.287,-0.032 0.3,-0.03L0.345,-0.023C0.354,-0.022 0.358,-0.018 0.358,-0.011C0.358,-0.004 0.353,-0 0.343,-0L0.118,-0Z" style="fill-rule:nonzero;stroke:black;stroke-width:0.01px;"/>
            </g>
            <g transform="matrix(144,0,0,144,583.33,116.515)">
                <path d="M-0.003,-0C-0.013,-0 -0.018,-0.003 -0.018,-0.01C-0.018,-0.017 -0.013,-0.021 -0.004,-0.023L0.011,-0.026C0.024,-0.029 0.034,-0.035 0.041,-0.046C0.048,-0.056 0.053,-0.07 0.058,-0.089L0.213,-0.714C0.214,-0.721 0.217,-0.725 0.22,-0.727C0.223,-0.729 0.225,-0.73 0.228,-0.73C0.231,-0.73 0.235,-0.729 0.238,-0.727C0.241,-0.725 0.243,-0.721 0.244,-0.714L0.402,-0.08C0.407,-0.061 0.412,-0.048 0.418,-0.041C0.424,-0.034 0.433,-0.029 0.446,-0.026L0.461,-0.023C0.47,-0.021 0.475,-0.017 0.475,-0.01C0.475,-0.003 0.47,-0 0.46,-0L0.289,-0C0.28,-0 0.275,-0.004 0.275,-0.011C0.275,-0.018 0.281,-0.022 0.292,-0.023L0.311,-0.025C0.322,-0.026 0.33,-0.03 0.333,-0.036C0.335,-0.042 0.335,-0.052 0.332,-0.067L0.294,-0.222C0.29,-0.239 0.279,-0.248 0.261,-0.248L0.156,-0.248C0.139,-0.248 0.128,-0.239 0.123,-0.222L0.089,-0.088C0.079,-0.05 0.089,-0.029 0.119,-0.025L0.134,-0.023C0.145,-0.021 0.151,-0.017 0.151,-0.011C0.151,-0.004 0.146,-0 0.137,-0L-0.003,-0ZM0.153,-0.278L0.263,-0.278C0.274,-0.278 0.278,-0.284 0.276,-0.295L0.212,-0.563L0.207,-0.563L0.14,-0.295C0.138,-0.284 0.142,-0.278 0.153,-0.278Z" style="fill-rule:nonzero;stroke:black;stroke-width:0.01px;"/>
            </g>
            <g transform="matrix(144,0,0,144,643.09,116.515)">
                <path d="M0.118,-0C0.108,-0 0.103,-0.004 0.103,-0.011C0.103,-0.018 0.107,-0.022 0.116,-0.023L0.161,-0.03C0.174,-0.032 0.183,-0.036 0.188,-0.041C0.193,-0.046 0.195,-0.055 0.195,-0.069L0.195,-0.669C0.195,-0.678 0.193,-0.685 0.189,-0.689C0.185,-0.693 0.177,-0.695 0.164,-0.695C0.139,-0.695 0.115,-0.684 0.091,-0.663C0.067,-0.642 0.051,-0.607 0.044,-0.56L0.039,-0.527C0.038,-0.518 0.033,-0.514 0.025,-0.514C0.015,-0.514 0.011,-0.52 0.012,-0.531L0.021,-0.712C0.022,-0.727 0.028,-0.735 0.039,-0.735C0.044,-0.735 0.048,-0.734 0.052,-0.732C0.056,-0.729 0.063,-0.727 0.073,-0.724C0.082,-0.721 0.098,-0.72 0.119,-0.72L0.342,-0.72C0.363,-0.72 0.379,-0.721 0.389,-0.724C0.398,-0.727 0.405,-0.729 0.41,-0.732C0.414,-0.734 0.418,-0.735 0.422,-0.735C0.433,-0.735 0.439,-0.727 0.44,-0.712L0.449,-0.531C0.45,-0.52 0.446,-0.514 0.436,-0.514C0.428,-0.514 0.423,-0.518 0.422,-0.527L0.417,-0.56C0.41,-0.607 0.395,-0.642 0.371,-0.663C0.347,-0.684 0.322,-0.695 0.297,-0.695C0.284,-0.695 0.276,-0.693 0.272,-0.689C0.268,-0.685 0.266,-0.678 0.266,-0.669L0.266,-0.069C0.266,-0.055 0.269,-0.046 0.274,-0.041C0.279,-0.036 0.287,-0.032 0.3,-0.03L0.345,-0.023C0.354,-0.022 0.358,-0.018 0.358,-0.011C0.358,-0.004 0.353,-0 0.343,-0L0.118,-0Z" style="fill-rule:nonzero;stroke:black;stroke-width:0.01px;"/>
            </g>
            <g transform="matrix(144,0,0,144,709.474,116.515)">
                <path d="M0.034,-0C0.024,-0 0.019,-0.004 0.019,-0.011C0.019,-0.017 0.023,-0.021 0.032,-0.023L0.055,-0.027C0.069,-0.03 0.078,-0.033 0.083,-0.038C0.087,-0.043 0.089,-0.052 0.089,-0.066L0.089,-0.654C0.089,-0.668 0.087,-0.677 0.083,-0.682C0.078,-0.687 0.069,-0.69 0.055,-0.693L0.032,-0.697C0.023,-0.699 0.019,-0.703 0.019,-0.709C0.019,-0.716 0.024,-0.72 0.034,-0.72L0.215,-0.72C0.225,-0.72 0.23,-0.716 0.23,-0.709C0.23,-0.703 0.226,-0.699 0.217,-0.697L0.194,-0.693C0.18,-0.69 0.171,-0.687 0.167,-0.682C0.162,-0.677 0.16,-0.668 0.16,-0.654L0.16,-0.066C0.16,-0.052 0.162,-0.043 0.167,-0.038C0.171,-0.033 0.18,-0.03 0.194,-0.027L0.217,-0.023C0.226,-0.021 0.23,-0.017 0.23,-0.011C0.23,-0.004 0.225,-0 0.215,-0L0.034,-0Z" style="fill-rule:nonzero;stroke:black;stroke-width:0.01px;"/>
            </g>
            <g transform="matrix(144,0,0,144,745.33,116.515)">
                <path d="M0.27,0.009C0.238,0.009 0.208,-0 0.18,-0.02C0.152,-0.039 0.128,-0.065 0.107,-0.098C0.086,-0.131 0.069,-0.17 0.058,-0.216C0.046,-0.261 0.04,-0.309 0.04,-0.361C0.04,-0.413 0.046,-0.461 0.058,-0.506C0.069,-0.551 0.086,-0.59 0.107,-0.624C0.128,-0.657 0.152,-0.683 0.18,-0.702C0.208,-0.721 0.238,-0.73 0.27,-0.73C0.302,-0.73 0.332,-0.721 0.36,-0.702C0.387,-0.683 0.412,-0.657 0.433,-0.624C0.454,-0.59 0.471,-0.551 0.483,-0.506C0.494,-0.461 0.5,-0.413 0.5,-0.361C0.5,-0.309 0.494,-0.261 0.483,-0.216C0.471,-0.17 0.454,-0.131 0.433,-0.098C0.412,-0.065 0.387,-0.039 0.36,-0.02C0.332,-0 0.302,0.009 0.27,0.009ZM0.27,-0.018C0.317,-0.018 0.354,-0.046 0.381,-0.103C0.408,-0.16 0.421,-0.246 0.421,-0.361C0.421,-0.476 0.408,-0.562 0.381,-0.619C0.354,-0.675 0.317,-0.703 0.27,-0.703C0.223,-0.703 0.187,-0.675 0.16,-0.619C0.133,-0.562 0.119,-0.476 0.119,-0.361C0.119,-0.246 0.133,-0.16 0.16,-0.103C0.187,-0.046 0.223,-0.018 0.27,-0.018Z" style="fill-rule:nonzero;stroke:black;stroke-width:0.01px;"/>
            </g>
            <g transform="matrix(144,0,0,144,821.938,116.515)">
                <path d="M0.429,0.009C0.418,0.009 0.409,0.001 0.402,-0.015L0.131,-0.603C0.129,-0.608 0.127,-0.61 0.124,-0.609C0.121,-0.608 0.119,-0.605 0.119,-0.6L0.119,-0.086C0.119,-0.067 0.122,-0.053 0.129,-0.044C0.135,-0.034 0.146,-0.028 0.163,-0.025L0.176,-0.023C0.185,-0.022 0.189,-0.018 0.189,-0.011C0.189,-0.004 0.184,-0 0.174,-0L0.031,-0C0.021,-0 0.016,-0.004 0.016,-0.011C0.016,-0.018 0.02,-0.022 0.029,-0.023L0.042,-0.025C0.059,-0.028 0.071,-0.034 0.078,-0.044C0.085,-0.053 0.088,-0.067 0.088,-0.086L0.088,-0.654C0.088,-0.668 0.086,-0.677 0.082,-0.682C0.077,-0.687 0.067,-0.69 0.052,-0.693L0.029,-0.697C0.02,-0.699 0.016,-0.703 0.016,-0.709C0.016,-0.716 0.021,-0.72 0.031,-0.72L0.138,-0.72C0.155,-0.72 0.166,-0.713 0.173,-0.698L0.409,-0.179C0.411,-0.175 0.413,-0.173 0.417,-0.174C0.42,-0.175 0.421,-0.177 0.421,-0.181L0.421,-0.634C0.421,-0.655 0.417,-0.67 0.41,-0.679C0.403,-0.687 0.393,-0.692 0.382,-0.694L0.364,-0.697C0.355,-0.699 0.351,-0.703 0.351,-0.709C0.351,-0.716 0.356,-0.72 0.366,-0.72L0.509,-0.72C0.519,-0.72 0.524,-0.716 0.524,-0.709C0.524,-0.702 0.52,-0.698 0.511,-0.697L0.498,-0.695C0.481,-0.692 0.469,-0.687 0.462,-0.679C0.455,-0.67 0.452,-0.655 0.452,-0.634L0.452,-0.023C0.452,-0.011 0.45,-0.003 0.446,0.002C0.441,0.007 0.436,0.009 0.429,0.009Z" style="fill-rule:nonzero;stroke:black;stroke-width:0.01px;"/>
            </g>
            <g transform="matrix(144,0,0,144,899.698,116.515)">
                <path d="M0.315,-0.01C0.312,-0.01 0.309,-0.011 0.306,-0.013C0.303,-0.015 0.3,-0.019 0.299,-0.026L0.148,-0.639C0.147,-0.644 0.145,-0.646 0.142,-0.646C0.139,-0.645 0.137,-0.643 0.137,-0.638L0.117,-0.086C0.116,-0.067 0.119,-0.053 0.126,-0.044C0.133,-0.034 0.144,-0.028 0.161,-0.025L0.174,-0.023C0.183,-0.022 0.187,-0.018 0.187,-0.011C0.187,-0.004 0.182,-0 0.172,-0L0.029,-0C0.019,-0 0.014,-0.004 0.014,-0.011C0.014,-0.018 0.018,-0.022 0.027,-0.023L0.04,-0.025C0.057,-0.028 0.069,-0.034 0.076,-0.044C0.082,-0.053 0.085,-0.067 0.086,-0.086L0.106,-0.654C0.107,-0.668 0.105,-0.677 0.1,-0.682C0.095,-0.687 0.085,-0.69 0.07,-0.693L0.047,-0.697C0.038,-0.699 0.034,-0.703 0.034,-0.709C0.034,-0.716 0.039,-0.72 0.049,-0.72L0.169,-0.72C0.19,-0.72 0.202,-0.71 0.207,-0.69L0.328,-0.191C0.329,-0.186 0.332,-0.184 0.335,-0.184C0.338,-0.184 0.339,-0.186 0.34,-0.191L0.466,-0.695C0.47,-0.712 0.481,-0.72 0.498,-0.72L0.616,-0.72C0.626,-0.72 0.631,-0.716 0.631,-0.709C0.631,-0.703 0.627,-0.699 0.618,-0.697L0.595,-0.693C0.581,-0.69 0.572,-0.687 0.567,-0.682C0.562,-0.677 0.56,-0.668 0.561,-0.654L0.581,-0.066C0.582,-0.052 0.584,-0.043 0.588,-0.038C0.592,-0.033 0.601,-0.03 0.615,-0.027L0.638,-0.023C0.647,-0.021 0.651,-0.017 0.651,-0.011C0.651,-0.004 0.646,-0 0.636,-0L0.455,-0C0.445,-0 0.44,-0.004 0.44,-0.011C0.44,-0.017 0.444,-0.021 0.453,-0.023L0.476,-0.027C0.49,-0.03 0.499,-0.033 0.504,-0.038C0.509,-0.043 0.511,-0.052 0.51,-0.066L0.493,-0.638C0.493,-0.643 0.492,-0.645 0.489,-0.646C0.486,-0.646 0.483,-0.644 0.482,-0.64L0.33,-0.026C0.329,-0.019 0.327,-0.015 0.324,-0.013C0.321,-0.011 0.318,-0.01 0.315,-0.01Z" style="fill-rule:nonzero;stroke:black;stroke-width:0.01px;"/>
            </g>
            <g transform="matrix(144,0,0,144,995.458,116.515)">
                <path d="M-0.003,-0C-0.013,-0 -0.018,-0.003 -0.018,-0.01C-0.018,-0.017 -0.013,-0.021 -0.004,-0.023L0.011,-0.026C0.024,-0.029 0.034,-0.035 0.041,-0.046C0.048,-0.056 0.053,-0.07 0.058,-0.089L0.213,-0.714C0.214,-0.721 0.217,-0.725 0.22,-0.727C0.223,-0.729 0.225,-0.73 0.228,-0.73C0.231,-0.73 0.235,-0.729 0.238,-0.727C0.241,-0.725 0.243,-0.721 0.244,-0.714L0.402,-0.08C0.407,-0.061 0.412,-0.048 0.418,-0.041C0.424,-0.034 0.433,-0.029 0.446,-0.026L0.461,-0.023C0.47,-0.021 0.475,-0.017 0.475,-0.01C0.475,-0.003 0.47,-0 0.46,-0L0.289,-0C0.28,-0 0.275,-0.004 0.275,-0.011C0.275,-0.018 0.281,-0.022 0.292,-0.023L0.311,-0.025C0.322,-0.026 0.33,-0.03 0.333,-0.036C0.335,-0.042 0.335,-0.052 0.332,-0.067L0.294,-0.222C0.29,-0.239 0.279,-0.248 0.261,-0.248L0.156,-0.248C0.139,-0.248 0.128,-0.239 0.123,-0.222L0.089,-0.088C0.079,-0.05 0.089,-0.029 0.119,-0.025L0.134,-0.023C0.145,-0.021 0.151,-0.017 0.151,-0.011C0.151,-0.004 0.146,-0 0.137,-0L-0.003,-0ZM0.153,-0.278L0.263,-0.278C0.274,-0.278 0.278,-0.284 0.276,-0.295L0.212,-0.563L0.207,-0.563L0.14,-0.295C0.138,-0.284 0.142,-0.278 0.153,-0.278Z" style="fill-rule:nonzero;stroke:black;stroke-width:0.01px;"/>
            </g>
            <g transform="matrix(144,0,0,144,1059.54,116.515)">
                <path d="M0.184,0.009C0.171,0.009 0.156,0.008 0.14,0.005C0.123,0.002 0.108,-0.001 0.094,-0.005C0.079,-0.009 0.068,-0.013 0.06,-0.018C0.055,-0.021 0.052,-0.023 0.05,-0.027C0.047,-0.029 0.046,-0.035 0.046,-0.042L0.041,-0.199C0.041,-0.212 0.045,-0.219 0.054,-0.219C0.061,-0.219 0.066,-0.213 0.069,-0.201L0.078,-0.163C0.101,-0.068 0.143,-0.02 0.205,-0.02C0.238,-0.02 0.265,-0.031 0.285,-0.054C0.304,-0.076 0.314,-0.107 0.314,-0.148C0.314,-0.187 0.304,-0.224 0.284,-0.258C0.263,-0.292 0.231,-0.326 0.186,-0.359C0.137,-0.394 0.101,-0.429 0.078,-0.462C0.055,-0.495 0.044,-0.53 0.044,-0.567C0.044,-0.616 0.061,-0.656 0.096,-0.686C0.13,-0.715 0.174,-0.73 0.227,-0.73C0.247,-0.73 0.266,-0.728 0.285,-0.723C0.304,-0.718 0.319,-0.712 0.331,-0.703C0.335,-0.7 0.338,-0.697 0.341,-0.694C0.343,-0.691 0.344,-0.686 0.344,-0.681L0.347,-0.53C0.347,-0.519 0.343,-0.513 0.334,-0.513C0.328,-0.513 0.324,-0.518 0.321,-0.527L0.314,-0.552C0.299,-0.603 0.284,-0.641 0.269,-0.665C0.253,-0.688 0.23,-0.7 0.201,-0.7C0.172,-0.7 0.15,-0.691 0.133,-0.672C0.116,-0.653 0.107,-0.627 0.107,-0.593C0.107,-0.564 0.116,-0.537 0.135,-0.511C0.154,-0.485 0.186,-0.453 0.233,-0.416C0.283,-0.375 0.32,-0.336 0.343,-0.299C0.366,-0.261 0.377,-0.221 0.377,-0.178C0.377,-0.141 0.369,-0.108 0.352,-0.08C0.335,-0.052 0.313,-0.03 0.284,-0.015C0.255,0.001 0.221,0.009 0.184,0.009Z" style="fill-rule:nonzero;stroke:black;stroke-width:0.01px;"/>
            </g>
            <g transform="matrix(144,0,0,144,1116.99,116.515)">
                <path d="M0.118,-0C0.108,-0 0.103,-0.004 0.103,-0.011C0.103,-0.018 0.107,-0.022 0.116,-0.023L0.161,-0.03C0.174,-0.032 0.183,-0.036 0.188,-0.041C0.193,-0.046 0.195,-0.055 0.195,-0.069L0.195,-0.669C0.195,-0.678 0.193,-0.685 0.189,-0.689C0.185,-0.693 0.177,-0.695 0.164,-0.695C0.139,-0.695 0.115,-0.684 0.091,-0.663C0.067,-0.642 0.051,-0.607 0.044,-0.56L0.039,-0.527C0.038,-0.518 0.033,-0.514 0.025,-0.514C0.015,-0.514 0.011,-0.52 0.012,-0.531L0.021,-0.712C0.022,-0.727 0.028,-0.735 0.039,-0.735C0.044,-0.735 0.048,-0.734 0.052,-0.732C0.056,-0.729 0.063,-0.727 0.073,-0.724C0.082,-0.721 0.098,-0.72 0.119,-0.72L0.342,-0.72C0.363,-0.72 0.379,-0.721 0.389,-0.724C0.398,-0.727 0.405,-0.729 0.41,-0.732C0.414,-0.734 0.418,-0.735 0.422,-0.735C0.433,-0.735 0.439,-0.727 0.44,-0.712L0.449,-0.531C0.45,-0.52 0.446,-0.514 0.436,-0.514C0.428,-0.514 0.423,-0.518 0.422,-0.527L0.417,-0.56C0.41,-0.607 0.395,-0.642 0.371,-0.663C0.347,-0.684 0.322,-0.695 0.297,-0.695C0.284,-0.695 0.276,-0.693 0.272,-0.689C0.268,-0.685 0.266,-0.678 0.266,-0.669L0.266,-0.069C0.266,-0.055 0.269,-0.046 0.274,-0.041C0.279,-0.036 0.287,-0.032 0.3,-0.03L0.345,-0.023C0.354,-0.022 0.358,-0.018 0.358,-0.011C0.358,-0.004 0.353,-0 0.343,-0L0.118,-0Z" style="fill-rule:nonzero;stroke:black;stroke-width:0.01px;"/>
            </g>
            <g transform="matrix(144,0,0,144,1183.38,116.515)">
                <path d="M0.034,-0C0.024,-0 0.019,-0.004 0.019,-0.011C0.019,-0.017 0.023,-0.021 0.032,-0.023L0.055,-0.027C0.069,-0.03 0.078,-0.033 0.083,-0.038C0.087,-0.043 0.089,-0.052 0.089,-0.066L0.089,-0.654C0.089,-0.668 0.087,-0.677 0.083,-0.682C0.078,-0.687 0.069,-0.69 0.055,-0.693L0.032,-0.697C0.023,-0.699 0.019,-0.703 0.019,-0.709C0.019,-0.716 0.024,-0.72 0.034,-0.72L0.37,-0.72C0.385,-0.72 0.394,-0.712 0.395,-0.697L0.403,-0.531C0.404,-0.52 0.4,-0.514 0.39,-0.514C0.382,-0.514 0.377,-0.518 0.376,-0.527L0.37,-0.564C0.363,-0.609 0.348,-0.643 0.325,-0.664C0.302,-0.685 0.271,-0.695 0.231,-0.695C0.204,-0.695 0.186,-0.691 0.176,-0.684C0.165,-0.676 0.16,-0.662 0.16,-0.643L0.16,-0.402C0.16,-0.393 0.165,-0.388 0.174,-0.388L0.224,-0.388C0.253,-0.388 0.271,-0.404 0.278,-0.435L0.288,-0.485C0.291,-0.495 0.296,-0.499 0.305,-0.498C0.312,-0.497 0.316,-0.491 0.316,-0.481L0.316,-0.256C0.316,-0.246 0.312,-0.24 0.305,-0.239C0.296,-0.238 0.291,-0.242 0.288,-0.252L0.278,-0.301C0.273,-0.324 0.267,-0.34 0.259,-0.347C0.25,-0.354 0.238,-0.358 0.223,-0.358L0.174,-0.358C0.165,-0.358 0.16,-0.353 0.16,-0.344L0.16,-0.093C0.16,-0.069 0.166,-0.052 0.179,-0.041C0.191,-0.03 0.213,-0.025 0.246,-0.025C0.279,-0.025 0.308,-0.034 0.332,-0.051C0.355,-0.068 0.372,-0.099 0.381,-0.146L0.393,-0.205C0.395,-0.214 0.4,-0.218 0.408,-0.218C0.417,-0.218 0.421,-0.212 0.42,-0.201L0.41,-0.023C0.409,-0.008 0.4,-0 0.385,-0L0.034,-0Z" style="fill-rule:nonzero;stroke:black;stroke-width:0.01px;"/>
            </g>
            <g transform="matrix(144,0,0,144,1248.61,116.515)">
                <path d="M0.45,0.009C0.392,0.009 0.355,-0.029 0.339,-0.105L0.316,-0.216C0.309,-0.252 0.301,-0.279 0.292,-0.298C0.283,-0.317 0.27,-0.329 0.255,-0.336C0.239,-0.343 0.217,-0.346 0.19,-0.346C0.181,-0.346 0.173,-0.343 0.168,-0.339C0.163,-0.334 0.16,-0.327 0.16,-0.32L0.16,-0.07C0.16,-0.056 0.163,-0.047 0.168,-0.042C0.173,-0.037 0.185,-0.032 0.204,-0.029L0.241,-0.023C0.248,-0.022 0.252,-0.018 0.252,-0.012C0.252,-0.004 0.247,-0 0.237,-0L0.034,-0C0.024,-0 0.019,-0.004 0.019,-0.011C0.019,-0.017 0.023,-0.021 0.032,-0.023L0.055,-0.027C0.069,-0.03 0.078,-0.033 0.083,-0.038C0.087,-0.043 0.089,-0.052 0.089,-0.066L0.089,-0.654C0.089,-0.668 0.087,-0.677 0.083,-0.682C0.078,-0.687 0.069,-0.69 0.055,-0.693L0.032,-0.697C0.023,-0.699 0.019,-0.703 0.019,-0.709C0.019,-0.716 0.024,-0.72 0.034,-0.72L0.237,-0.72C0.276,-0.72 0.311,-0.712 0.342,-0.697C0.373,-0.682 0.397,-0.661 0.414,-0.634C0.431,-0.607 0.44,-0.575 0.44,-0.54C0.44,-0.498 0.427,-0.46 0.402,-0.427C0.377,-0.393 0.345,-0.369 0.306,-0.355C0.301,-0.354 0.299,-0.352 0.299,-0.349C0.298,-0.346 0.3,-0.343 0.305,-0.341C0.326,-0.331 0.343,-0.317 0.356,-0.299C0.368,-0.281 0.377,-0.257 0.384,-0.227L0.406,-0.125C0.413,-0.09 0.422,-0.066 0.432,-0.051C0.442,-0.036 0.455,-0.029 0.47,-0.029C0.475,-0.029 0.48,-0.03 0.485,-0.032C0.489,-0.033 0.494,-0.036 0.501,-0.041C0.506,-0.044 0.511,-0.045 0.516,-0.044C0.521,-0.042 0.523,-0.038 0.523,-0.033C0.523,-0.022 0.516,-0.012 0.501,-0.004C0.486,0.005 0.469,0.009 0.45,0.009ZM0.227,-0.371C0.272,-0.371 0.307,-0.386 0.33,-0.417C0.353,-0.447 0.365,-0.487 0.365,-0.538C0.365,-0.587 0.352,-0.626 0.325,-0.654C0.298,-0.681 0.26,-0.695 0.213,-0.695C0.178,-0.695 0.16,-0.682 0.16,-0.655L0.16,-0.426C0.16,-0.389 0.182,-0.371 0.227,-0.371Z" style="fill-rule:nonzero;stroke:black;stroke-width:0.01px;"/>
            </g>
        </g>
        <g transform="matrix(2.75606,0,0,2.97724,-1369.53,280.234)">
            <g transform="matrix(144,0,0,144,522.994,116.515)">
                <path d="M0.342,0.012C0.306,0.012 0.273,0.008 0.243,-0.001C0.213,-0.01 0.188,-0.019 0.167,-0.03C0.146,-0.04 0.131,-0.047 0.122,-0.051C0.113,-0.044 0.106,-0.038 0.1,-0.033C0.093,-0.028 0.085,-0.02 0.076,-0.011C0.069,-0.004 0.063,-0.003 0.057,-0.006C0.051,-0.009 0.048,-0.014 0.048,-0.021L0.048,-0.216C0.048,-0.224 0.053,-0.229 0.062,-0.23C0.07,-0.231 0.076,-0.229 0.078,-0.223C0.091,-0.186 0.11,-0.152 0.136,-0.123C0.162,-0.094 0.193,-0.071 0.23,-0.055C0.266,-0.038 0.305,-0.03 0.347,-0.03C0.382,-0.03 0.41,-0.037 0.432,-0.051C0.453,-0.065 0.469,-0.083 0.48,-0.105C0.491,-0.126 0.496,-0.148 0.496,-0.169C0.496,-0.198 0.488,-0.221 0.472,-0.239C0.456,-0.256 0.435,-0.271 0.409,-0.282C0.383,-0.293 0.354,-0.302 0.323,-0.31C0.291,-0.318 0.259,-0.327 0.228,-0.336C0.197,-0.345 0.168,-0.358 0.142,-0.373C0.116,-0.388 0.095,-0.408 0.079,-0.433C0.063,-0.458 0.055,-0.489 0.055,-0.528C0.055,-0.574 0.066,-0.612 0.089,-0.644C0.111,-0.675 0.141,-0.698 0.178,-0.714C0.215,-0.73 0.256,-0.738 0.299,-0.738C0.327,-0.738 0.354,-0.735 0.38,-0.728C0.405,-0.721 0.428,-0.713 0.449,-0.705C0.47,-0.696 0.486,-0.687 0.497,-0.68C0.505,-0.687 0.512,-0.694 0.518,-0.699C0.523,-0.704 0.528,-0.707 0.531,-0.71C0.538,-0.715 0.544,-0.716 0.549,-0.714C0.554,-0.711 0.557,-0.705 0.557,-0.696L0.557,-0.525C0.557,-0.516 0.553,-0.511 0.545,-0.509C0.536,-0.507 0.53,-0.51 0.527,-0.519C0.512,-0.552 0.494,-0.582 0.472,-0.61C0.449,-0.638 0.424,-0.661 0.395,-0.678C0.366,-0.695 0.334,-0.704 0.299,-0.704C0.27,-0.704 0.245,-0.698 0.223,-0.686C0.201,-0.673 0.184,-0.657 0.171,-0.637C0.158,-0.617 0.152,-0.595 0.152,-0.57C0.152,-0.542 0.16,-0.52 0.177,-0.503C0.193,-0.486 0.214,-0.473 0.241,-0.463C0.268,-0.453 0.297,-0.444 0.33,-0.437C0.362,-0.43 0.394,-0.422 0.426,-0.413C0.458,-0.404 0.487,-0.391 0.514,-0.376C0.541,-0.361 0.562,-0.34 0.579,-0.315C0.595,-0.289 0.603,-0.255 0.603,-0.214C0.603,-0.167 0.592,-0.126 0.569,-0.092C0.546,-0.058 0.515,-0.032 0.476,-0.015C0.437,0.003 0.392,0.012 0.342,0.012Z" style="fill-rule:nonzero;"/>
            </g>
        </g>
        <g transform="matrix(0.576049,0,0,0.578372,32.0749,153.038)">
            <path d="M250.741,257.452C220.206,246.739 198.65,220.84 198.65,190.624C198.65,150.835 236.028,118.532 282.068,118.532C328.107,118.532 365.485,150.835 365.485,190.624C365.485,220.734 344.08,246.558 313.714,257.339L313.714,280.182L250.741,280.182L250.741,257.452ZM304.54,221.038C304.54,220.475 304.081,220.018 303.515,220.018L301.467,220.018C300.901,220.018 300.442,220.475 300.442,221.038L300.442,246.37C300.442,246.933 300.901,247.391 301.467,247.391L303.515,247.391C304.081,247.391 304.54,246.933 304.54,246.37L304.54,221.038ZM279.459,219.618C279.459,219.055 279,218.598 278.434,218.598L276.386,218.598C275.82,218.598 275.361,219.055 275.361,219.618L275.361,244.95C275.361,245.514 275.82,245.971 276.386,245.971L278.434,245.971C279,245.971 279.459,245.514 279.459,244.95L279.459,219.618ZM292.687,219.618C292.687,219.055 292.228,218.598 291.663,218.598L289.614,218.598C289.049,218.598 288.59,219.055 288.59,219.618L288.59,244.95C288.59,245.514 289.049,245.971 289.614,245.971L291.663,245.971C292.228,245.971 292.687,245.514 292.687,244.95L292.687,219.618ZM313.714,235.583C333.486,226.779 346.874,209.894 346.874,190.529C346.874,162.087 317.997,138.997 282.429,138.997C246.86,138.997 217.983,162.087 217.983,190.529C217.983,209.763 231.19,226.55 250.741,235.403L250.741,224.081C246.332,219.08 243.74,212.974 243.74,206.386C243.74,189.459 260.849,175.717 281.922,175.717C302.995,175.717 320.104,189.459 320.104,206.386C320.104,212.664 317.751,218.504 313.714,223.367L313.714,235.583ZM265.508,221.038C265.508,220.475 265.049,220.018 264.484,220.018L262.435,220.018C261.87,220.018 261.411,220.475 261.411,221.038L261.411,246.37C261.411,246.933 261.87,247.391 262.435,247.391L264.484,247.391C265.049,247.391 265.508,246.933 265.508,246.37L265.508,221.038ZM303.963,193.332C303.954,189.64 295.012,186.664 284.006,186.689C273,186.714 264.071,189.731 264.079,193.422C268.73,192.304 276.062,191.389 284.016,191.371C291.971,191.353 299.307,192.235 303.963,193.332ZM266.222,264.993L301.325,264.993C297.977,260.653 291.37,257.698 283.773,257.698C276.177,257.698 269.57,260.653 266.222,264.993Z"/>
        </g>
        <g transform="matrix(0.992697,0,0,0.992697,-0.809448,-0.314466)">
            <g transform="matrix(0.578198,-0.014208,0.014208,0.578198,20.4545,132.559)">
                <path d="M304.983,460.921C304.277,461.073 304.044,460.649 304.55,460.133C308.21,456.398 316.165,448.7 323.211,444.81C333.578,439.086 352.241,432.129 366.756,425.788C368.909,424.848 369.208,425.391 367.263,426.707C354.145,435.585 338.289,447.639 327.909,453.341C320.855,457.216 310.097,459.824 304.983,460.921Z" style="stroke:black;stroke-width:3px;stroke-linecap:round;stroke-miterlimit:1.5;"/>
            </g>
            <g transform="matrix(0.367056,-0.446973,0.446973,0.367056,-113.567,361.8)">
                <path d="M288.293,420.611C288.075,420.583 287.849,420.542 287.615,420.487C283.759,419.582 281.851,416.403 281.875,413.35C281.927,406.704 286.381,404.431 288.293,399.155C290.507,393.046 290.014,385.913 291.713,379.31C291.791,379.005 292.117,377.934 292.398,377.959C292.626,377.979 293.075,378.983 293.154,379.292C294.854,385.895 293.938,393.334 296.575,399.137C298.896,404.246 302.941,406.686 302.993,413.332C303.017,416.385 301.109,419.564 297.252,420.469C297.159,420.491 297.067,420.511 296.976,420.528L296.976,460.669L288.293,460.669L288.293,420.611Z"/>
            </g>
            <g transform="matrix(0.42883,0,0,0.578372,56.6943,127.851)">
                <rect x="163.389" y="460.656" width="35.569" height="12.02"/>
            </g>
            <g transform="matrix(0.42883,0,0,0.578372,182.736,127.851)">
                <rect x="163.389" y="460.656" width="35.569" height="12.02"/>
            </g>
            <g transform="matrix(2.62582e-17,0.42883,-0.578372,3.54151e-17,467.814,257.544)">
                <rect x="163.389" y="460.656" width="35.569" height="12.02"/>
            </g>
            <g transform="matrix(-0.214415,0.371377,-0.500885,-0.289186,502.261,411.148)">
                <rect x="163.389" y="460.656" width="35.569" height="12.02"/>
            </g>
            <g transform="matrix(-0.371377,0.214415,-0.289186,-0.500885,454.423,562.897)">
                <rect x="163.389" y="460.656" width="35.569" height="12.02"/>
            </g>
            <g transform="matrix(-0.371377,-0.214415,0.289186,-0.500885,184.517,702.11)">
                <rect x="163.389" y="460.656" width="35.569" height="12.02"/>
            </g>
            <g transform="matrix(-0.371377,-0.214415,0.289186,-0.500885,75.9593,638.589)">
                <rect x="163.389" y="460.656" width="35.569" height="12.02"/>
            </g>
            <g transform="matrix(-0.214415,-0.371377,0.500885,-0.289186,-29.7599,544.708)">
                <rect x="163.389" y="460.656" width="35.569" height="12.02"/>
            </g>
            <g transform="matrix(0.578372,0,0,0.578372,27.4569,120.963)">
                <circle cx="293.951" cy="477.422" r="14.574"/>
            </g>
        </g>
    </g>
</svg>
